<?xml version="1.0"?>
<svg xmlns="http://www.w3.org/2000/svg" height="512px" viewBox="0 0 464 464.008" width="512px" class=""><g transform="matrix(1 0 0 1 0 0)"><path d="m404.414062 120.847656 31.996094-16 7.15625 14.308594-32 16zm0 0" data-original="#000000" class="active-path" data-old_color="#000000" fill="#CE2323"/><path d="m404.414062 215.167969 7.152344-14.3125 32 16-7.15625 14.308593zm0 0" data-original="#000000" class="active-path" data-old_color="#000000" fill="#CE2323"/><path d="m416.003906 160h48v16h-48zm0 0" data-original="#000000" class="active-path" data-old_color="#000000" fill="#CE2323"/><path d="m9.347656 236.441406 13.3125-8.875 41.246094 61.875c2.746094 4.109375 7.320312 6.558594 12.257812 6.558594 4.808594 0 9.3125-2.351562 12.070313-6.289062l45.363281-64.800782-14.859375-14.863281-49.421875 43.929687-10.625-11.953124 11.304688-10.046876-25.183594-33.578124c-10.234375-13.636719-23.121094-21.03125-38.28125-22.167969-4.261719 8-6.52734375 16.96875-6.52734375 26.28125v77.496093h38.38281275zm0 0" data-original="#000000" class="active-path" data-old_color="#000000" fill="#CE2323"/><path d="m143.570312 128-7.566406-22.703125v-9.535156l-72 22.148437v22.785156c0 4.304688 1.472656 8.351563 4.054688 11.710938 1.289062-.214844 2.59375-.398438 3.945312-.398438h43.71875l16-24h11.847656zm0 0" data-original="#000000" class="active-path" data-old_color="#000000" fill="#CE2323"/><path d="m48.003906 176c0-6.015625 2.304688-11.449219 5.96875-15.664062-2.113281-3.144532-3.550781-6.632813-4.550781-10.265626-2.898437 1.234376-6.074219 1.929688-9.417969 1.929688-3.695312 0-7.152344-.902344-10.28125-2.40625l-12.125 12.125c11.285156 2.585938 21.519532 8.167969 30.40625 16.472656zm0 0" data-original="#000000" class="active-path" data-old_color="#000000" fill="#CE2323"/><path d="m40.003906 136c4.417969 0 8-3.585938 8-8v-21.902344l99.902344-30.746094c2.449219-.75 4.097656-2.984374 4.097656-5.542968 0-3.199219-2.601562-5.808594-5.808594-5.808594-.886718 0-1.390624.0625-1.863281.191406l-112.328125 29.960938v33.847656c0 4.414062 3.585938 8 8 8zm0 0" data-original="#000000" class="active-path" data-old_color="#000000" fill="#CE2323"/><path d="m84.003906 0c-28.671875 0-52 23.328125-52 52v25.585938l103.894532-27.699219c-1.117188-27.6875-23.933594-49.886719-51.894532-49.886719zm0 0" data-original="#000000" class="active-path" data-old_color="#000000" fill="#CE2323"/><path d="m256.003906 160h16v24h-16zm0 0" data-original="#000000" class="active-path" data-old_color="#000000" fill="#CE2323"/><path d="m191.371094 217.273438 26.792968-17.273438h-34.359374c.054687.664062.199218 1.296875.199218 1.96875 0 11.933594-8.089844 22.304688-19.671875 25.191406l-15.480469 3.863282-.449218.640624 25.617187 20.496094c5.550781 4.457032 13.816407 5.007813 19.921875 1.34375l66.75-40.054687-8.96875-13.457031h-4.023437l-47.65625 30.726562zm0 0" data-original="#000000" class="active-path" data-old_color="#000000" fill="#CE2323"/><path d="m153.1875 256-13.984375-11.183594-7.832031 11.183594zm0 0" data-original="#000000" class="active-path" data-old_color="#000000" fill="#CE2323"/><path d="m168.003906 201.96875c0-5.503906-4.472656-9.96875-9.96875-9.96875h-18.992187l-8.328125 7.398438 15.746094 15.746093 13.992187-3.496093c4.445313-1.113282 7.550781-5.089844 7.550781-9.679688zm0 0" data-original="#000000" class="active-path" data-old_color="#000000" fill="#CE2323"/><path d="m129.621094 160 10.664062 16h17.75c7.335938 0 13.945313 3.089844 18.671875 8h63.296875v-40h-99.71875zm0 0" data-original="#000000" class="active-path" data-old_color="#000000" fill="#CE2323"/><path d="m72.003906 168c-4.414062 0-8 3.585938-8 8v21.335938l17.984375 23.976562 43.496094-38.664062-9.769531-14.648438zm0 0" data-original="#000000" class="active-path" data-old_color="#000000" fill="#CE2323"/><path d="m50.597656 298.3125-1.546875-2.3125h-9.046875v16h36.167969c-10.304687 0-19.863281-5.113281-25.574219-13.6875zm0 0" data-original="#000000" class="active-path" data-old_color="#000000" fill="#CE2323"/><path d="m276.285156 208h3.71875c7.0625 0 13.359375-3.128906 17.761719-8h-26.808594zm0 0" data-original="#000000" class="active-path" data-old_color="#000000" fill="#CE2323"/><path d="m240.003906 424v-128c0-13.230469-10.769531-24-24-24h-95.832031l-6.902344 9.863281c8.644531 3.632813 14.734375 12.183594 14.734375 22.136719 0 5.953125-2.257812 11.34375-5.863281 15.542969l13.382813 15.617187c25.488281-5.65625 49.96875-16.28125 67.679687-29.558594l9.59375 12.796876c-3.960937 2.96875-8.296875 5.777343-12.800781 8.480468v83.503906l7.289062 8.503907c1.375 1.601562 2.582032 3.3125 3.648438 5.113281zm0 0" data-original="#000000" class="active-path" data-old_color="#000000" fill="#CE2323"/><path d="m276.035156 451.824219-29.566406-11.824219h-30.679688c.054688.808594.214844 1.601562.214844 2.414062v1.425782c0 7.464844-2.273437 14.398437-6.160156 20.167968h63.847656c3.488282 0 6.3125-2.832031 6.3125-6.3125 0-2.597656-1.558594-4.902343-3.96875-5.871093zm0 0" data-original="#000000" class="active-path" data-old_color="#000000" fill="#CE2323"/><path d="m320.003906 160h16v24h-16zm0 0" data-original="#000000" class="active-path" data-old_color="#000000" fill="#CE2323"/><path d="m352.003906 160h48v16h-48zm0 0" data-original="#000000" class="active-path" data-old_color="#000000" fill="#CE2323"/><path d="m288.003906 160h16v24h-16zm0 0" data-original="#000000" class="active-path" data-old_color="#000000" fill="#CE2323"/><path d="m.00390625 296h23.99999975v40h-23.99999975zm0 0" data-original="#000000" class="active-path" data-old_color="#000000" fill="#CE2323"/><path d="m147.226562 348.808594 36.777344 42.910156v-56.277344c-11.496094 5.429688-23.945312 9.984375-36.777344 13.367188zm0 0" data-original="#000000" class="active-path" data-old_color="#000000" fill="#CE2323"/><path d="m103.371094 296-2.023438 2.886719c-5.75 8.210937-15.167968 13.113281-25.175781 13.113281h27.832031c4.417969 0 8-3.585938 8-8s-3.582031-8-8-8zm0 0" data-original="#000000" class="active-path" data-old_color="#000000" fill="#CE2323"/><path d="m.00390625 408v49.6875c0 3.488281 2.83203175 6.3125 6.31249975 6.3125 2.589844 0 4.894532-1.558594 5.863282-3.96875l11.824218-29.566406v-30.464844h-16c-4.414062 0-7.99999975 3.59375-7.99999975 8zm0 0" data-original="#000000" class="active-path" data-old_color="#000000" fill="#CE2323"/><path d="m107.988281 327.601562c-1.304687.214844-2.617187.398438-3.984375.398438h-64v8c0 8.824219-7.175781 16-16 16h-21.265625c5.394531 15.769531 18.539063 28 35.328125 32h1.9375v.527344c.222656.046875.433594.136718.65625.183594l97.222656 23.511718-3.765624 15.546875-94.113282-22.761719v24.914063l134.449219 37.34375c1.757813.496094 3.558594.742187 5.390625.742187 11.121094 0 20.167969-9.046874 20.167969-20.167968v-1.425782c0-4.804687-1.726563-9.460937-4.847657-13.109374zm0 0" data-original="#000000" class="active-path" data-old_color="#000000" fill="#CE2323"/></g> </svg>
