<svg height="496pt" viewBox="-15 0 495 496" width="496pt" xmlns="http://www.w3.org/2000/svg"><g fill="#f0bc5e"><path d="m432.5 344h-32v-40h16v24h16zm0 0"/><path d="m416.5 360h16v16h-16zm0 0"/><path d="m184.5 432h-40v-32h16v16h24zm0 0"/><path d="m144.5 448h16v16h-16zm0 0"/><path d="m144.5 304h16v40h-16zm0 0"/><path d="m144.5 360h16v16h-16zm0 0"/><path d="m424.5 424h-16v-16h-16v-16h32zm0 0"/><path d="m416.5 448h16v16h-16zm0 0"/><path d="m208.5 320h48v16h-48zm0 0"/><path d="m320.5 320h48v16h-48zm0 0"/><path d="m336.5 56h-16v-8h-24v-40h16v24h24zm0 0"/><path d="m344.5 56h16v16h-16zm0 0"/><path d="m256.5 72h-16v-16h-45.28125v-16h61.28125zm0 0"/><path d="m208.5 72h16v16h-16zm0 0"/><path d="m328.5 120h-16v-24h-40v-32h16v16h40zm0 0"/></g><path d="m256.5 152c0 4.417969-3.582031 8-8 8s-8-3.582031-8-8 3.582031-8 8-8 8 3.582031 8 8zm0 0"/><path d="m336.5 152c0 4.417969-3.582031 8-8 8s-8-3.582031-8-8 3.582031-8 8-8 8 3.582031 8 8zm0 0"/><path d="m422.933594 294.769531-78.433594-20.914062v-16.824219c5.214844-5.128906 9.703125-10.96875 13.367188-17.351562 23.953124-2.679688 42.632812-23.03125 42.632812-47.679688h8c13.230469 0 24-10.769531 24-24v-49.167969c0-12.199219-6.785156-23.167969-17.6875-28.625l-14.457031-7.222656c-2.609375-46.199219-41.015625-82.984375-87.855469-82.984375h-48c-46.839844 0-85.246094 36.785156-87.855469 82.984375l-14.457031 7.222656c-10.902344 5.457031-17.6875 16.425781-17.6875 28.625v49.167969c0 13.230469 10.769531 24 24 24h8c0 24.648438 18.679688 45 42.632812 47.679688 3.664063 6.382812 8.152344 12.230468 13.367188 17.351562v16.824219l-14.863281 3.96875-53.824219-53.824219c-9.199219-9.183594-24.433594-10.136719-34.960938-2.953125l-48.351562-48.359375v-8l-36.6875-36.6875h-14.625l-28.6875 28.6875v14.625l36.6875 36.6875h8l-32 32 17.152344 17.152344 48.007812-16 15.167969 15.167968c-3.230469 4.566407-5.015625 9.976563-5.015625 15.679688 0 7.304688 2.839844 14.160156 8 19.3125l25.976562 25.976562c-6.25 9.09375-9.976562 19.976563-9.976562 31.589844v147.121094h352v-147.121094c0-25.335937-17.097656-47.582031-41.566406-54.109375zm-198.433594-142.769531c0-13.230469 10.769531-24 24-24h80c13.230469 0 24 10.769531 24 24v24h-128zm-32 40v-64h-16v48h-8c-4.414062 0-8-3.59375-8-8v-49.167969c0-6.097656 3.390625-11.585937 8.839844-14.3125l23.160156-11.574219v-4.945312c0-39.695312 32.296875-72 72-72h48c39.703125 0 72 32.304688 72 72v4.945312l23.160156 11.574219c5.449219 2.726563 8.839844 8.214844 8.839844 14.3125v49.167969c0 4.40625-3.585938 8-8 8h-8v-48h-16v64c0 12.976562-7.800781 24.128906-18.929688 29.144531 1.859376-6.753906 2.929688-13.816406 2.929688-21.144531v-96h-16v16.207031c-6.703125-5.078125-14.960938-8.207031-24-8.207031h-80c-9.039062 0-17.296875 3.128906-24 8.207031v-16.207031h-16v96c0 7.328125 1.070312 14.390625 2.929688 21.144531-11.128907-5.015625-18.929688-16.167969-18.929688-29.144531zm32 8v-8h128v8c0 35.289062-28.710938 64-64 64s-64-28.710938-64-64zm64 80c14.574219 0 28.214844-3.984375 40-10.824219v8.136719c-4.046875 4.917969-17.375 18.6875-40 18.6875-22.671875 0-35.929688-13.710938-40-18.6875v-8.136719c11.785156 6.839844 25.425781 10.824219 40 10.824219zm-184-35.3125-44.6875-44.6875 12.6875-12.6875 44.6875 44.6875zm-88-80v-1.375l19.3125-19.3125h1.375l27.3125 27.3125v1.375l-19.3125 19.3125h-1.375zm21.617188 73.007812 18.382812-18.382812 9.191406 9.191406zm66.382812 34.304688c0-3.023438 1.167969-5.863281 3.3125-8l28.6875-28.679688c4.28125-4.28125 11.71875-4.28125 16 0l47.273438 47.273438-45.707032 12.183594c-7.804687 2.078125-14.734375 5.894531-20.726562 10.757812l-5.527344-5.535156 22.34375-22.34375-11.3125-11.3125-22.34375 22.34375-8.6875-8.6875c-2.144531-2.136719-3.3125-4.976562-3.3125-8zm248 208h-16v-80h-96v80h-16v-96h128zm-32 0h-64v-64h64zm128 0h-48v-120h-16v120h-16v-112h-160v112h-16v-120h-16v120h-48v-131.121094c0-18.09375 12.207031-33.992187 29.695312-38.648437l79.335938-21.160157c6.984375 7.867188 23.890625 22.929688 50.96875 22.929688s43.984375-15.0625 50.96875-22.929688l79.335938 21.160157c17.488281 4.65625 29.695312 20.554687 29.695312 38.648437zm0 0"/></svg>